<svg width="300" height="73" viewBox="0 0 300 73" fill="none" xmlns="http://www.w3.org/2000/svg">
<g clip-path="url(#clip0_19_2)">
<path d="M76.6104 0.059272H1.35354C1.08283 -0.0309641 0.812125 -0.0309642 0.541417 0.149508C0.270708 0.239744 0.0902361 0.600689 0 0.871397V41.2972C0 41.7483 0.270708 42.1093 0.631653 42.2898L28.6048 58.2616C28.9658 58.442 29.417 58.442 29.7779 58.2616C30.1389 58.0811 30.3193 57.6299 30.3193 57.269C30.3193 53.0279 32.6655 51.0427 35.7335 52.8474C39.3429 54.8326 42.3207 60.6077 42.3207 65.4804C42.3207 65.9316 42.5914 66.2926 42.9524 66.473L53.51 72.5189C53.6905 72.6091 53.8709 72.6993 54.0514 72.6993C54.2319 72.6993 54.4124 72.6993 54.5026 72.6091C75.9788 62.8636 77.603 46.2601 77.603 41.3874V1.23234C77.7835 0.600689 77.2421 0.059272 76.6104 0.059272ZM75.3471 3.39801C75.2569 4.21013 75.1667 5.20273 74.896 6.28556C74.896 6.3758 74.896 6.46603 74.8057 6.55627C74.7155 7.00745 74.6252 7.45863 74.4448 8.00005C74.4448 8.18052 74.3545 8.36099 74.2643 8.54146C74.1741 8.99264 73.9936 9.35359 73.9034 9.80477C73.8131 9.98524 73.7229 10.2559 73.6326 10.4364C73.4522 10.7974 73.3619 11.2485 73.1815 11.6095C73.0912 11.8802 73.001 12.1509 72.8205 12.3314C72.6401 12.6923 72.4596 13.1435 72.2791 13.5044C72.0986 13.7752 72.0084 14.0459 71.8279 14.3166C71.6475 14.6775 71.3767 15.1287 71.106 15.4896L70.5646 16.3018C70.2939 16.6627 70.0232 17.1139 69.7525 17.4748C69.572 17.7455 69.3013 18.0163 69.1208 18.3772C68.8501 18.7381 68.4892 19.1893 68.1282 19.5503C67.8575 19.821 67.6771 20.0917 67.4064 20.4526C67.0454 20.9038 66.5942 21.2648 66.2333 21.7159L65.4212 22.5281C64.97 22.9792 64.4286 23.4304 63.8872 23.7914C63.6164 24.0621 63.3457 24.2425 63.075 24.5133L60.9094 26.1375C60.7289 26.2277 60.6386 26.4082 60.4582 26.4984C59.5558 27.1301 58.473 27.7617 57.3901 28.3032C57.0292 28.4836 56.6683 28.6641 56.3976 28.8446C55.6757 29.2055 55.044 29.5665 54.2319 29.9274L5.68487 2.40541H75.4374C75.4374 2.67612 75.4374 2.85659 75.3471 3.1273V3.39801ZM36.9968 50.6817C35.8237 50.0501 34.6507 49.6891 33.5678 49.6891C30.7705 49.6891 28.6951 51.8548 28.1537 55.1935L2.2559 40.485V3.21754L51.976 31.4614L52.9686 32.0028V69.3606L44.7571 64.6683C44.4864 59.1639 41.1477 53.1181 36.9968 50.6817ZM75.4374 41.2972C75.4374 45.6285 73.9936 60.337 55.3147 69.5411V32.0931C55.6757 31.9126 56.0366 31.7321 56.4878 31.4614C57.3902 31.0102 58.2023 30.5591 59.0144 30.1079C59.4656 29.8372 59.9168 29.5665 60.4582 29.2958C61.1801 28.8446 61.902 28.3934 62.5336 27.9422C62.9848 27.6715 63.3457 27.3106 63.7969 27.0399C64.4286 26.5887 65.0602 26.1375 65.6016 25.5961C65.9626 25.3254 66.3235 24.9644 66.6845 24.6937C67.2259 24.2425 67.7673 23.7011 68.2185 23.2499L69.1208 22.3476L70.4744 20.7233C70.7451 20.4526 70.9256 20.1819 71.1963 19.9112C71.6475 19.2796 72.0986 18.7381 72.4596 18.1065C72.6401 17.926 72.7303 17.6553 72.9108 17.4748C73.4522 16.6627 73.9034 15.8506 74.3545 15.0385C74.3545 15.0385 74.3545 14.9482 74.4448 14.9482C74.8057 14.2263 75.1667 13.4142 75.5276 12.6923C75.5276 12.6923 75.5276 12.6021 75.6178 12.6021V41.2972H75.4374Z" fill="#E9B10C"/>
<path d="M11.2796 14.3166C9.65532 13.324 7.39941 14.0459 7.39941 16.9334C7.39941 18.9186 8.57248 21.0843 10.1065 21.9866C10.5577 22.2573 11.0991 22.3476 11.5503 22.3476C12.7233 22.3476 13.9866 21.355 13.9866 19.2796C13.9866 17.3846 12.8136 15.2189 11.2796 14.3166ZM11.2796 20.0014C10.5577 19.5503 9.74555 18.1967 9.74555 16.9334C9.74555 16.4822 9.83579 16.2115 9.92602 16.2115L10.1967 16.3018C10.9186 16.7529 11.7307 18.1065 11.7307 19.3698C11.6405 19.9112 11.5503 20.0917 11.2796 20.0014ZM42.8622 30.7395C40.6063 29.4762 37.7187 30.3786 37.7187 34.349C37.7187 37.2365 39.4332 40.5753 41.6891 41.8386C42.3208 42.1995 42.9524 42.38 43.5841 42.38C45.2083 42.38 46.8326 41.1167 46.8326 38.2291C46.8326 35.3416 45.0279 32.0028 42.8622 30.7395ZM43.5841 40.0339C43.4036 40.0339 43.1329 39.9436 42.8622 39.7631C41.3282 38.8608 40.0649 36.4244 40.0649 34.349C40.0649 33.4466 40.3356 32.5443 40.9672 32.5443C41.1477 32.5443 41.4184 32.6345 41.6891 32.815C43.2231 33.7173 44.4864 36.1537 44.4864 38.2291C44.4864 39.1315 44.2157 40.0339 43.5841 40.0339ZM21.4762 31.3712C20.6641 30.92 19.7618 30.6493 18.9496 30.6493C16.8742 30.6493 14.7988 32.3638 14.7988 36.1537C14.7988 40.2143 17.2351 44.8164 20.3032 46.5309C21.1153 46.982 22.0177 47.2527 22.8298 47.2527C24.9052 47.2527 26.9806 45.5383 26.9806 41.7483C26.9806 37.6877 24.5443 33.0857 21.4762 31.3712ZM22.8298 44.9066C22.4688 44.9066 21.9274 44.7261 21.4762 44.4554C19.1301 43.1921 17.0547 39.312 17.0547 36.1537C17.0547 34.7099 17.5059 32.9954 18.8594 32.9954C19.2203 32.9954 19.7618 33.1759 20.2129 33.4466C22.5591 34.8002 24.5443 38.5901 24.5443 41.8386C24.6345 43.1921 24.1833 44.9066 22.8298 44.9066Z" fill="#E9B10C"/>
<path d="M98.7817 40.5428L99.2688 41.1597H107.412L107.866 39.8935L106.964 39.6857C106.009 39.387 105.379 39.0233 105.08 38.6013C104.782 38.1792 104.632 37.3935 104.632 36.2506V29.0493H107.412C108.749 29.0493 109.704 29.1987 110.275 29.4974C110.853 29.7961 111.262 30.3675 111.509 31.2181L111.671 32.0363L112.977 31.6272V25.2376L112.204 24.8285L111.873 25.2376C111.464 25.8935 111.035 26.348 110.587 26.5883C110.132 26.835 109.613 26.9584 109.009 26.9584H104.632V19.4714C104.632 18.322 104.782 17.5623 105.08 17.1792C105.379 16.7961 106.009 16.6077 106.964 16.6077H110.236C111.139 16.6077 111.834 16.6987 112.327 16.8935C112.814 17.0818 113.197 17.4064 113.47 17.8545C113.743 18.3026 114.003 18.9909 114.249 19.9194L114.535 20.822L115.723 20.374V13.7831L115.145 13.2896L114.535 13.7831C114.126 14.0558 113.587 14.2506 112.918 14.374C112.249 14.4974 111.353 14.5623 110.236 14.5623H99.2688L98.7817 15.1337L99.2688 15.8285C99.8986 16.6467 100.34 17.5103 100.6 18.4259C100.86 19.3415 100.99 20.5233 100.99 21.9649V33.7116C100.99 35.2116 100.86 36.4129 100.6 37.3155C100.34 38.2116 99.8986 39.0753 99.2688 39.8935L98.7817 40.5428ZM124.191 39.8675C126.022 41.0818 128.269 41.6922 130.944 41.6922C133.619 41.6922 135.873 41.0818 137.717 39.8675C139.561 38.6597 140.944 37.0103 141.873 34.9389C142.801 32.8675 143.262 30.5168 143.262 27.9C143.262 25.2831 142.801 22.9194 141.873 20.822C140.944 18.7181 139.561 17.0623 137.717 15.848C135.873 14.6337 133.619 14.0298 130.944 14.0298C128.269 14.0298 126.022 14.6337 124.191 15.848C122.366 17.0623 120.996 18.7181 120.08 20.822C119.165 22.9194 118.71 25.2831 118.71 27.9C118.71 30.5168 119.165 32.8675 120.08 34.9389C120.996 37.0103 122.366 38.6597 124.191 39.8675ZM135.301 37.9909C134.035 39.0103 132.528 39.5233 130.782 39.5233C128.217 39.5233 126.23 38.4584 124.827 36.3285C123.418 34.2051 122.717 31.5039 122.717 28.2311C122.717 25.9909 123.054 23.9519 123.723 22.1077C124.392 20.2701 125.366 18.809 126.645 17.7311C127.931 16.6532 129.444 16.1142 131.191 16.1142C133.126 16.1142 134.697 16.7441 135.899 17.9974C137.093 19.2506 137.957 20.7896 138.477 22.6013C138.99 24.4129 139.249 26.2246 139.249 28.0233C139.249 30.1532 138.912 32.0883 138.23 33.835C137.548 35.5818 136.574 36.9649 135.301 37.9909ZM151.321 39.8675C153.152 41.0818 155.405 41.6922 158.074 41.6922C160.749 41.6922 163.009 41.0818 164.847 39.8675C166.691 38.6597 168.074 37.0103 169.003 34.9389C169.931 32.8675 170.392 30.5168 170.392 27.9C170.392 25.2831 169.931 22.9194 169.003 20.822C168.074 18.7181 166.691 17.0623 164.847 15.848C163.009 14.6337 160.749 14.0298 158.074 14.0298C155.405 14.0298 153.152 14.6337 151.321 15.848C149.496 17.0623 148.126 18.7181 147.21 20.822C146.295 22.9194 145.84 25.2831 145.84 27.9C145.84 30.5168 146.295 32.8675 147.21 34.9389C148.126 37.0103 149.496 38.6597 151.321 39.8675ZM162.438 37.9909C161.165 39.0103 159.658 39.5233 157.912 39.5233C155.347 39.5233 153.366 38.4584 151.957 36.3285C150.554 34.2051 149.853 31.5039 149.853 28.2311C149.853 25.9909 150.184 23.9519 150.853 22.1077C151.522 20.2701 152.496 18.809 153.782 17.7311C155.061 16.6532 156.574 16.1142 158.321 16.1142C160.256 16.1142 161.827 16.7441 163.028 17.9974C164.23 19.2506 165.087 20.7896 165.606 22.6013C166.126 24.4129 166.386 26.2246 166.386 28.0233C166.386 30.1532 166.041 32.0883 165.36 33.835C164.678 35.5818 163.704 36.9649 162.438 37.9909ZM173.139 39.8935L173.587 41.1597H185.21C187.879 41.1597 190.139 40.5818 191.983 39.4194C193.821 38.2636 195.204 36.6792 196.132 34.6727C197.061 32.6662 197.528 30.4129 197.528 27.9C197.528 23.7831 196.392 20.4389 194.132 17.874C191.866 15.309 188.152 14.0298 182.996 14.0298C181.249 14.0298 179.438 14.1987 177.554 14.5363C175.671 14.8805 174.145 15.2571 172.97 15.6662L173.425 17.0558H175.548C175.821 17.0558 176.028 17.1142 176.165 17.2376C176.301 17.361 176.366 17.5883 176.366 17.9129V36.6597C176.366 37.5883 176.171 38.2636 175.775 38.6857C175.379 39.1077 174.801 39.4389 174.035 39.6857L173.139 39.8935ZM193.516 27.822C193.516 35.4584 190.366 39.2766 184.061 39.2766C182.86 39.2766 181.892 38.9519 181.158 38.2961C180.418 37.6402 180.054 36.4259 180.054 34.6532V17.835C180.054 16.6597 181.269 16.0753 183.691 16.0753C185.847 16.0753 187.665 16.6207 189.139 17.7116C190.613 18.8026 191.71 20.2376 192.431 22.0103C193.152 23.7831 193.516 25.7181 193.516 27.822ZM217.249 41.6922L217.535 42.0623L218.314 41.6922V35.309L217.003 34.9389L216.801 35.7571C216.477 37.0688 216.041 37.9389 215.509 38.374C214.977 38.8155 214.074 39.0298 212.788 39.0298H209.554C208.873 39.0298 208.373 38.9649 208.041 38.8285C207.717 38.6922 207.49 38.4259 207.366 38.0298C207.243 37.6337 207.184 37.0428 207.184 36.2506V21.9649C207.184 20.4909 207.308 19.3026 207.554 18.387C207.795 17.4714 208.236 16.6207 208.86 15.8285L209.353 15.1337L208.86 14.5623H200.717L200.269 15.8285L201.171 16.0298C202.093 16.2766 202.717 16.6272 203.028 17.0753C203.347 17.5298 203.503 18.322 203.503 19.4714V36.4974C203.503 37.5558 203.353 38.3026 203.048 38.7246C202.749 39.1467 202.152 39.4974 201.249 39.7701L200.431 39.9714L200.879 41.1597H215.652C216.093 41.1597 216.431 41.1987 216.678 41.2831C216.925 41.3675 217.113 41.5039 217.249 41.6922ZM218.522 39.8935L219.009 41.1597H225.801L226.503 40.5428L226.21 39.8935C225.86 39.2896 225.678 38.5428 225.678 37.6402C225.678 36.7376 225.951 35.4454 226.503 33.7506L227.399 31.0493H235.951L237.71 36.2506L237.977 37.0493C238.1 37.4129 238.165 37.7376 238.165 38.0103C238.165 38.4714 238.035 38.835 237.775 39.0948C237.515 39.3545 237.1 39.5493 236.528 39.6857L235.626 39.8935L236.035 41.1597H244.425L244.912 40.5428C243.99 39.835 243.301 39.1922 242.847 38.6207C242.399 38.0493 241.97 37.1792 241.561 36.0039L234.067 14.5623H226.951L226.503 15.8285L227.36 16.0298C227.931 16.1402 228.347 16.3285 228.606 16.5883C228.866 16.8415 228.996 17.2052 228.996 17.6727C228.996 17.9974 228.86 18.5948 228.587 19.4714L222.775 36.2506C222.392 37.3935 221.983 38.1792 221.548 38.6013C221.113 39.0233 220.386 39.387 219.379 39.6857L218.522 39.8935ZM228.217 28.7181L231.658 18.322L235.217 28.7181H228.217ZM246.554 39.8935L247.003 41.1597H254.041L254.528 40.5428L254.041 39.8935C253.412 39.1013 252.983 38.2571 252.749 37.3545C252.522 36.4519 252.405 35.2376 252.405 33.7116V20.1662L266.522 41.1597H270.249L270.697 40.5428L270.249 39.8935C269.892 39.3155 269.717 38.6467 269.717 37.887V21.9649C269.717 20.4909 269.834 19.3026 270.08 18.387C270.327 17.4714 270.749 16.6207 271.353 15.8285L271.886 15.1337L271.353 14.5623H264.392L263.86 15.8285L264.762 16.0298C265.691 16.2766 266.321 16.6337 266.645 17.0948C266.97 17.5623 267.139 18.3545 267.139 19.4714V35.5558L252.977 14.5623H247.003L246.554 15.8285L247.412 16.0298C248.34 16.2766 248.957 16.6272 249.275 17.0753C249.587 17.5298 249.743 18.322 249.743 19.4714V36.2506C249.743 37.3935 249.593 38.1792 249.295 38.6013C248.996 39.0233 248.366 39.387 247.412 39.6857L246.554 39.8935ZM275.606 39.8935L276.054 41.1597H287.678C290.353 41.1597 292.613 40.5818 294.451 39.4194C296.295 38.2636 297.678 36.6792 298.606 34.6727C299.535 32.6662 299.996 30.4129 299.996 27.9C299.996 23.7831 298.866 20.4389 296.6 17.874C294.334 15.309 290.626 14.0298 285.47 14.0298C283.723 14.0298 281.912 14.1987 280.028 14.5363C278.145 14.8805 276.619 15.2571 275.444 15.6662L275.892 17.0558H278.022C278.295 17.0558 278.496 17.1142 278.632 17.2376C278.769 17.361 278.84 17.5883 278.84 17.9129V36.6597C278.84 37.5883 278.639 38.2636 278.249 38.6857C277.853 39.1077 277.269 39.4389 276.509 39.6857L275.606 39.8935ZM295.99 27.822C295.99 35.4584 292.834 39.2766 286.535 39.2766C285.334 39.2766 284.366 38.9519 283.626 38.2961C282.892 37.6402 282.522 36.4259 282.522 34.6532V17.835C282.522 16.6597 283.736 16.0753 286.165 16.0753C288.321 16.0753 290.132 16.6207 291.606 17.7116C293.08 18.8026 294.178 20.2376 294.905 22.0103C295.626 23.7831 295.99 25.7181 295.99 27.822Z" fill="#F5A623"/>
<path d="M98.7817 58.8077L98.9441 59.2298H101.21L101.444 59.022L101.347 58.8077C101.23 58.6064 101.171 58.3597 101.171 58.0545C101.171 57.7558 101.262 57.3272 101.444 56.7623L101.743 55.8597H104.593L105.178 57.5934L105.269 57.8597C105.308 57.983 105.327 58.0869 105.327 58.1778C105.327 58.3337 105.288 58.4571 105.197 58.5415C105.113 58.6259 104.977 58.6908 104.782 58.7363L104.483 58.8077L104.619 59.2298H107.418L107.58 59.022C107.269 58.7882 107.041 58.5739 106.892 58.3856C106.743 58.1908 106.6 57.9051 106.464 57.509L103.964 50.3662H101.593L101.444 50.7882L101.73 50.8532C101.918 50.8921 102.054 50.9506 102.145 51.0415C102.23 51.1259 102.275 51.2428 102.275 51.3986C102.275 51.509 102.23 51.7103 102.139 52.0025L100.197 57.5934C100.074 57.9765 99.9376 58.2363 99.7882 58.3791C99.6454 58.5155 99.4051 58.6389 99.0675 58.7363L98.7817 58.8077ZM102.016 55.0804L103.158 51.6194L104.347 55.0804H102.016ZM109.126 59.0999C109.275 59.3077 109.528 59.4051 109.873 59.4051C110.074 59.4051 110.301 59.3337 110.554 59.1908C110.808 59.0415 111.041 58.8532 111.249 58.6129L111.003 58.3012C110.821 58.4765 110.619 58.561 110.392 58.561C110.269 58.561 110.178 58.522 110.119 58.4506C110.054 58.3791 110.022 58.2752 110.022 58.1389L110.048 49.9571C110.048 49.8337 110.009 49.7428 109.938 49.6649C109.866 49.5934 109.769 49.561 109.652 49.561C109.405 49.561 109.132 49.6259 108.821 49.7688C108.509 49.9116 108.236 50.0934 108.003 50.3077L108.126 50.6194H108.658C108.749 50.6194 108.814 50.6454 108.847 50.6843C108.886 50.7233 108.905 50.7947 108.905 50.8921V58.0999C108.905 58.561 108.977 58.8986 109.126 59.0999ZM113.087 59.061C113.425 59.2882 113.795 59.4051 114.197 59.4051C114.606 59.4051 114.983 59.3077 115.334 59.1129C115.684 58.9181 116.022 58.5804 116.353 58.0999C116.353 58.561 116.431 58.8986 116.58 59.0999C116.736 59.3077 116.99 59.4051 117.334 59.4051C117.535 59.4051 117.756 59.3337 118.003 59.1973C118.249 59.0545 118.477 58.8597 118.697 58.6129L118.464 58.3012C118.256 58.4506 118.054 58.522 117.853 58.522C117.587 58.522 117.457 58.3921 117.457 58.1389V54.1129C117.457 54.0155 117.47 53.9376 117.49 53.8726C117.516 53.8142 117.554 53.7298 117.619 53.6259L117.795 53.3921L117.632 53.2428C117.295 53.2168 116.918 53.1649 116.503 53.0934C115.938 52.9895 115.49 52.9441 115.165 52.9441C114.184 52.9441 113.405 53.2493 112.827 53.8662C112.249 54.4895 111.957 55.3272 111.957 56.3921C111.957 57.035 112.061 57.5869 112.262 58.035C112.47 58.4895 112.743 58.8272 113.087 59.061ZM116.353 57.3207C115.925 58.0675 115.366 58.4376 114.671 58.4376C114.275 58.4376 113.938 58.2558 113.671 57.8856C113.405 57.5155 113.269 56.9441 113.269 56.1584C113.269 55.3532 113.431 54.7233 113.769 54.2817C114.1 53.8467 114.561 53.6259 115.152 53.6259C115.593 53.6259 115.996 53.7428 116.353 53.9765V57.3207ZM120.145 58.9765C120.554 59.2623 121.067 59.4051 121.684 59.4051C122.418 59.4051 123.016 59.2363 123.464 58.8986C123.912 58.5545 124.139 58.0999 124.139 57.5415C124.139 57.2363 124.048 56.9765 123.866 56.7558C123.684 56.5285 123.464 56.3467 123.197 56.2038C122.938 56.0545 122.6 55.8986 122.204 55.7233C121.736 55.5545 121.379 55.3662 121.126 55.1713C120.873 54.9765 120.743 54.7233 120.743 54.4116C120.743 54.1519 120.84 53.9376 121.035 53.7752C121.23 53.6129 121.496 53.5285 121.834 53.5285C122.1 53.5285 122.334 53.5999 122.541 53.7558C122.756 53.9051 122.86 54.1259 122.86 54.4116C122.86 54.5804 122.821 54.7233 122.756 54.8532C122.684 54.9765 122.652 55.061 122.652 55.0934C122.652 55.2168 122.743 55.2752 122.925 55.2752C123.236 55.2752 123.483 55.1713 123.678 54.9765C123.866 54.7752 123.964 54.5155 123.964 54.1973C123.964 53.8077 123.769 53.496 123.392 53.2752C123.009 53.0545 122.522 52.9441 121.931 52.9441C121.282 52.9441 120.749 53.0934 120.321 53.4051C119.892 53.7168 119.678 54.1129 119.678 54.5934C119.678 54.9571 119.775 55.2623 119.964 55.522C120.158 55.7752 120.386 55.9765 120.652 56.1324C120.925 56.2882 121.256 56.4506 121.658 56.6259C122.093 56.8077 122.425 56.983 122.658 57.1584C122.892 57.3272 123.009 57.548 123.009 57.8142C123.009 58.0999 122.899 58.3402 122.678 58.522C122.464 58.7038 122.178 58.7947 121.834 58.7947C121.535 58.7947 121.262 58.7038 121.022 58.522C120.782 58.3402 120.658 58.0804 120.658 57.7428C120.658 57.561 120.691 57.4051 120.743 57.2752C120.795 57.1389 120.827 57.061 120.827 57.035C120.827 56.9895 120.795 56.9506 120.743 56.9246C120.691 56.8986 120.632 56.8856 120.567 56.8856C120.269 56.8856 120.016 56.9765 119.821 57.1649C119.626 57.3467 119.528 57.5804 119.528 57.8532C119.528 58.3142 119.736 58.6908 120.145 58.9765ZM129.821 59.2623C129.983 59.3597 130.184 59.4051 130.444 59.4051C130.944 59.4051 131.386 59.1454 131.782 58.6129L131.509 58.3012C131.425 58.3921 131.327 58.47 131.204 58.5285C131.087 58.5869 130.97 58.6129 130.853 58.6129C130.632 58.6129 130.457 58.5025 130.334 58.2752L129.392 56.4311C129.957 56.3726 130.399 56.1519 130.73 55.7882C131.054 55.4181 131.217 55.0025 131.217 54.535C131.217 54.0934 131.074 53.7168 130.775 53.4051C130.483 53.0934 130.061 52.9441 129.516 52.9441C129.048 52.9441 128.613 53.1129 128.197 53.4506C127.782 53.7947 127.47 54.2363 127.262 54.7817V49.9571C127.262 49.8337 127.223 49.7428 127.145 49.6649C127.067 49.5934 126.97 49.561 126.853 49.561C126.626 49.561 126.36 49.6259 126.054 49.7688C125.749 49.9116 125.483 50.0934 125.243 50.3077L125.34 50.6194H125.899C125.99 50.6194 126.054 50.6454 126.093 50.6843C126.126 50.7233 126.145 50.7947 126.145 50.8921V57.8532C126.145 58.1713 126.113 58.3986 126.041 58.5285C125.977 58.6584 125.834 58.7428 125.626 58.7817L125.353 58.8467L125.503 59.2298H127.671L127.821 59.0415L127.671 58.8467C127.516 58.6454 127.412 58.4311 127.353 58.1908C127.295 57.9571 127.262 57.6454 127.262 57.2493C127.262 56.2038 127.444 55.3662 127.801 54.7298C128.158 54.0934 128.645 53.7752 129.256 53.7752C129.528 53.7752 129.736 53.8597 129.886 54.0285C130.028 54.1908 130.1 54.3986 130.1 54.6454C130.1 54.983 129.977 55.2817 129.717 55.548C129.464 55.8077 129.113 55.9441 128.671 55.9441C128.451 55.9441 128.275 55.9246 128.139 55.8791C128.003 55.8402 127.918 55.8207 127.892 55.8207C127.827 55.8207 127.782 55.8467 127.749 55.8986C127.717 55.9571 127.697 56.009 127.697 56.0675C127.697 56.1908 127.775 56.2752 127.931 56.3077L128.041 56.3532L128.97 58.0999C129.152 58.4441 129.301 58.6973 129.412 58.8662C129.528 59.035 129.665 59.1713 129.821 59.2623ZM133.684 59.061C134.022 59.2882 134.392 59.4051 134.795 59.4051C135.204 59.4051 135.58 59.3077 135.931 59.1129C136.282 58.9181 136.619 58.5804 136.951 58.0999C136.951 58.561 137.028 58.8986 137.178 59.0999C137.334 59.3077 137.587 59.4051 137.931 59.4051C138.132 59.4051 138.353 59.3337 138.6 59.1973C138.847 59.0545 139.074 58.8597 139.295 58.6129L139.061 58.3012C138.853 58.4506 138.652 58.522 138.451 58.522C138.184 58.522 138.054 58.3921 138.054 58.1389V54.1129C138.054 54.0155 138.067 53.9376 138.087 53.8726C138.113 53.8142 138.152 53.7298 138.217 53.6259L138.392 53.3921L138.23 53.2428C137.892 53.2168 137.516 53.1649 137.1 53.0934C136.535 52.9895 136.087 52.9441 135.762 52.9441C134.782 52.9441 134.003 53.2493 133.425 53.8662C132.847 54.4895 132.554 55.3272 132.554 56.3921C132.554 57.035 132.658 57.5869 132.866 58.035C133.067 58.4895 133.34 58.8272 133.684 59.061ZM136.951 57.3207C136.522 58.0675 135.964 58.4376 135.269 58.4376C134.873 58.4376 134.535 58.2558 134.269 57.8856C134.003 57.5155 133.866 56.9441 133.866 56.1584C133.866 55.3532 134.035 54.7233 134.366 54.2817C134.697 53.8467 135.158 53.6259 135.749 53.6259C136.191 53.6259 136.593 53.7428 136.951 53.9765V57.3207ZM139.256 58.8077L139.418 59.2298H141.684L141.912 59.022L141.821 58.8077C141.697 58.6064 141.639 58.3597 141.639 58.0545C141.639 57.7558 141.73 57.3272 141.912 56.7623L142.217 55.8597H145.067L145.652 57.5934L145.743 57.8597C145.782 57.983 145.801 58.0869 145.801 58.1778C145.801 58.3337 145.756 58.4571 145.671 58.5415C145.587 58.6259 145.444 58.6908 145.256 58.7363L144.957 58.8077L145.093 59.2298H147.886L148.054 59.022C147.743 58.7882 147.516 58.5739 147.366 58.3856C147.21 58.1908 147.067 57.9051 146.931 57.509L144.438 50.3662H142.061L141.912 50.7882L142.197 50.8532C142.392 50.8921 142.528 50.9506 142.619 51.0415C142.704 51.1259 142.749 51.2428 142.749 51.3986C142.749 51.509 142.704 51.7103 142.606 52.0025L140.671 57.5934C140.548 57.9765 140.412 58.2363 140.262 58.3791C140.119 58.5155 139.879 58.6389 139.541 58.7363L139.256 58.8077ZM142.49 55.0804L143.632 51.6194L144.821 55.0804H142.49ZM149.6 59.0999C149.749 59.3077 149.996 59.4051 150.347 59.4051C150.541 59.4051 150.769 59.3337 151.028 59.1908C151.282 59.0415 151.516 58.8532 151.723 58.6129L151.477 58.3012C151.295 58.4765 151.087 58.561 150.86 58.561C150.743 58.561 150.652 58.522 150.587 58.4506C150.528 58.3791 150.496 58.2752 150.496 58.1389L150.522 49.9571C150.522 49.8337 150.483 49.7428 150.412 49.6649C150.34 49.5934 150.243 49.561 150.126 49.561C149.879 49.561 149.6 49.6259 149.295 49.7688C148.983 49.9116 148.71 50.0934 148.477 50.3077L148.6 50.6194H149.132C149.223 50.6194 149.282 50.6454 149.321 50.6843C149.36 50.7233 149.373 50.7947 149.373 50.8921V58.0999C149.373 58.561 149.451 58.8986 149.6 59.0999ZM153.782 59.009C154.21 59.2752 154.71 59.4051 155.282 59.4051C155.762 59.4051 156.217 59.3142 156.639 59.1259C157.061 58.9441 157.431 58.6649 157.736 58.3012C157.736 58.2947 157.749 58.2752 157.762 58.2558C157.782 58.2298 157.795 58.2038 157.795 58.1778C157.795 58.0999 157.756 58.022 157.678 57.9506C157.6 57.8726 157.522 57.8402 157.451 57.8402C157.405 57.8402 157.366 57.8532 157.34 57.8791C156.866 58.3532 156.269 58.5869 155.541 58.5869C154.951 58.5869 154.496 58.3791 154.184 57.9701C153.873 57.5545 153.71 56.9765 153.71 56.2428C153.71 55.3791 153.86 54.7103 154.158 54.2428C154.451 53.7752 154.866 53.5415 155.405 53.5415C155.762 53.5415 156.041 53.6584 156.256 53.8986C156.47 54.1324 156.58 54.4116 156.58 54.7428C156.58 55.1259 156.444 55.4506 156.171 55.7233C155.899 55.996 155.509 56.1324 155.009 56.1324C154.782 56.1324 154.6 56.1064 154.457 56.061C154.314 56.009 154.23 55.983 154.204 55.983C154.158 55.983 154.119 56.009 154.08 56.0675C154.048 56.1194 154.028 56.1843 154.028 56.2558C154.028 56.4441 154.184 56.5934 154.503 56.6843C154.821 56.7817 155.119 56.8272 155.392 56.8272C155.873 56.8272 156.295 56.7298 156.652 56.5285C157.016 56.3272 157.288 56.0675 157.47 55.7493C157.658 55.4311 157.749 55.0999 157.749 54.7558C157.749 54.2558 157.567 53.8272 157.197 53.4701C156.827 53.1194 156.308 52.9441 155.639 52.9441C155.003 52.9441 154.438 53.0804 153.951 53.3532C153.464 53.6259 153.093 54.009 152.827 54.509C152.561 55.009 152.431 55.5869 152.431 56.2428C152.431 56.8726 152.548 57.4246 152.788 57.8986C153.022 58.3791 153.353 58.7493 153.782 59.009ZM162.554 58.535C162.86 59.1129 163.301 59.4051 163.86 59.4051C164.074 59.4051 164.262 59.3597 164.444 59.2688C164.619 59.1778 164.808 59.035 165.009 58.8337L164.723 58.4636C164.567 58.5675 164.418 58.6129 164.269 58.6129C164.152 58.6129 164.054 58.5934 163.977 58.548C163.899 58.5025 163.827 58.4116 163.756 58.2752L162.373 55.9441C163.009 55.2493 163.756 54.4895 164.6 53.6649L164.925 53.3337L164.801 53.0934H162.866L162.704 53.2688L162.977 53.4571C163.054 53.5415 163.119 53.6129 163.152 53.6649C163.191 53.7168 163.21 53.7817 163.21 53.8532C163.21 54.0999 162.847 54.6389 162.119 55.4765L161.119 53.7882C160.821 53.2233 160.386 52.9441 159.808 52.9441C159.392 52.9441 159.009 53.1259 158.665 53.5025L158.938 53.8532C159.158 53.7558 159.308 53.7038 159.399 53.7038C159.509 53.7038 159.606 53.7298 159.691 53.7817C159.769 53.8272 159.847 53.9181 159.918 54.048L161.282 56.3662C160.522 57.1649 159.658 58.035 158.704 58.9701L158.853 59.2298H160.782L160.918 59.0415L160.684 58.8467C160.6 58.7752 160.541 58.7103 160.503 58.6519C160.457 58.5934 160.438 58.522 160.438 58.4376C160.438 58.1908 160.808 57.6584 161.541 56.8272L162.554 58.535Z" fill="#E9B10C"/>
</g>
<defs>
<clipPath id="clip0_19_2">
<rect width="299.996" height="72.6993" fill="white"/>
</clipPath>
</defs>
</svg>
