<svg width="301" height="56" viewBox="0 0 301 56" fill="none" xmlns="http://www.w3.org/2000/svg">
<path d="M31.0782 33.7806C31.0782 34.8557 30.6511 35.8868 29.8909 36.647C29.1307 37.4072 28.0997 37.8343 27.0246 37.8343C25.9495 37.8343 24.9184 37.4072 24.1582 36.647C23.398 35.8868 22.9709 34.8557 22.9709 33.7806C22.9709 32.7055 23.398 31.6744 24.1582 30.9142C24.9184 30.154 25.9495 29.7269 27.0246 29.7269C28.0997 29.7269 29.1307 30.154 29.8909 30.9142C30.6511 31.6744 31.0782 32.7055 31.0782 33.7806ZM9.45863 31.0782C9.4627 31.2581 9.43078 31.4371 9.36474 31.6045C9.2987 31.7719 9.19988 31.9245 9.07407 32.0532C8.94826 32.1819 8.79801 32.2842 8.63212 32.354C8.46624 32.4239 8.28808 32.4599 8.10809 32.4599C7.9281 32.46 7.74992 32.4241 7.584 32.3543C7.41808 32.2845 7.26778 32.1823 7.14191 32.0537C7.01603 31.925 6.91713 31.7725 6.85101 31.6051C6.78489 31.4377 6.75288 31.2588 6.75686 31.0788C6.76466 30.7258 6.91037 30.3898 7.16279 30.1429C7.41521 29.8959 7.75428 29.7576 8.10741 29.7575C8.46055 29.7574 8.79969 29.8956 9.05223 30.1424C9.30477 30.3892 9.45065 30.7251 9.45863 31.0782ZM64.7913 22.9708C64.0832 10.1909 53.4923 0 40.5368 0C40.5071 0 40.4828 0.0135124 40.4557 0.0162148C40.3638 0.0216197 40.2828 0.0459415 40.1882 0.072966C40.101 0.0944468 40.0158 0.123379 39.9335 0.159445C39.9071 0.172957 39.8767 0.172957 39.8558 0.186469L0.98645 22.9708H64.7913ZM49.9954 41.888C49.9954 45.6194 46.9707 48.6441 43.2393 48.6441C39.5078 48.6441 36.4831 45.6194 36.4831 41.888C36.4831 38.1566 39.5078 35.1318 43.2393 35.1318C46.9707 35.1318 49.9954 38.1566 49.9954 41.888ZM20.2684 47.2929C20.2725 47.4728 20.2406 47.6517 20.1745 47.8192C20.1085 47.9866 20.0097 48.1392 19.8839 48.2679C19.7581 48.3966 19.6078 48.4989 19.4419 48.5687C19.276 48.6386 19.0979 48.6746 18.9179 48.6746C18.7379 48.6747 18.5597 48.6388 18.3938 48.569C18.2279 48.4992 18.0776 48.397 17.9517 48.2684C17.8258 48.1397 17.7269 47.9872 17.6608 47.8198C17.5947 47.6524 17.5627 47.4735 17.5667 47.2935C17.5745 46.9405 17.7202 46.6045 17.9726 46.3576C18.225 46.1106 18.5641 45.9723 18.9172 45.9722C19.2703 45.9721 19.6095 46.1103 19.862 46.3571C20.1146 46.6039 20.2604 46.9398 20.2684 47.2929Z" fill="#D97B17"/>
<path d="M0 25.6733V54.049C0 54.7922 0.605349 55.4002 1.35122 55.4002H63.5076C64.2507 55.4002 64.8588 54.7922 64.8588 54.049V25.6733H0ZM8.10735 35.1319C5.87242 35.1319 4.05367 33.3138 4.05367 31.0782C4.05367 28.8426 5.87242 27.0245 8.10735 27.0245C10.3423 27.0245 12.161 28.8426 12.161 31.0782C12.161 33.3138 10.3423 35.1319 8.10735 35.1319ZM18.9171 51.3466C16.6822 51.3466 14.8635 49.5285 14.8635 47.2929C14.8635 45.0573 16.6822 43.2392 18.9171 43.2392C21.1521 43.2392 22.9708 45.0573 22.9708 47.2929C22.9708 49.5285 21.1521 51.3466 18.9171 51.3466ZM27.0245 40.5368C23.3005 40.5368 20.2684 37.5046 20.2684 33.7806C20.2684 30.0567 23.3005 27.0245 27.0245 27.0245C30.7485 27.0245 33.7806 30.0567 33.7806 33.7806C33.7806 37.5046 30.7485 40.5368 27.0245 40.5368ZM43.2392 51.3466C38.0228 51.3466 33.7806 47.1044 33.7806 41.888C33.7806 36.6722 38.0228 32.4294 43.2392 32.4294C48.4556 32.4294 52.6978 36.6722 52.6978 41.888C52.6978 47.1044 48.4556 51.3466 43.2392 51.3466ZM56.7514 35.1319C54.5158 35.1319 52.6978 33.3138 52.6978 31.0782C52.6978 28.8426 54.5158 27.0245 56.7514 27.0245C58.987 27.0245 60.8051 28.8426 60.8051 31.0782C60.8051 33.3138 58.987 35.1319 56.7514 35.1319Z" fill="#D97B17"/>
<path d="M58.1026 31.0782C58.1067 31.2581 58.0748 31.4371 58.0087 31.6045C57.9427 31.7719 57.8439 31.9245 57.7181 32.0532C57.5922 32.1819 57.442 32.2842 57.2761 32.3541C57.1102 32.4239 56.9321 32.4599 56.7521 32.46C56.5721 32.46 56.3939 32.4241 56.228 32.3543C56.0621 32.2846 55.9118 32.1823 55.7859 32.0537C55.66 31.925 55.5611 31.7725 55.495 31.6051C55.4289 31.4377 55.3969 31.2588 55.4008 31.0789C55.4087 30.7258 55.5544 30.3898 55.8068 30.1429C56.0592 29.8959 56.3983 29.7576 56.7514 29.7575C57.1045 29.7574 57.4437 29.8956 57.6962 30.1424C57.9488 30.3892 58.0946 30.7251 58.1026 31.0782Z" fill="#D97B17"/>
<path d="M91.0295 32.8105V20.804H103.016V17.6157H91.0295V7.58324H103.757V4.40142H87.4126V32.8105H91.0295ZM122.504 33.2001C125.809 33.2001 128.354 31.9274 130.14 29.3884C131.932 26.8495 132.822 23.2456 132.822 18.5638C132.822 13.8884 131.939 10.2845 130.172 7.75207C128.4 5.2196 125.861 3.95337 122.542 3.95337C115.627 3.95337 112.166 8.81051 112.166 18.5248C112.166 28.3105 115.614 33.2001 122.504 33.2001ZM122.504 30.0313C118.166 30.0313 115.997 26.2066 115.997 18.5638C115.997 10.9469 118.179 7.14168 122.542 7.14168C124.731 7.14168 126.354 8.06376 127.413 9.90791C128.465 11.7521 128.997 14.6417 128.997 18.5638C128.997 22.4534 128.471 25.3365 127.432 27.2131C126.387 29.0897 124.744 30.0313 122.504 30.0313ZM150.367 33.2001C153.672 33.2001 156.218 31.9274 158.004 29.3884C159.796 26.8495 160.685 23.2456 160.685 18.5638C160.685 13.8884 159.802 10.2845 158.036 7.75207C156.263 5.2196 153.724 3.95337 150.406 3.95337C143.491 3.95337 140.029 8.81051 140.029 18.5248C140.029 28.3105 143.478 33.2001 150.367 33.2001ZM150.367 30.0313C146.029 30.0313 143.861 26.2066 143.861 18.5638C143.861 10.9469 146.042 7.14168 150.406 7.14168C152.594 7.14168 154.218 8.06376 155.276 9.90791C156.328 11.7521 156.861 14.6417 156.861 18.5638C156.861 22.4534 156.335 25.3365 155.296 27.2131C154.25 29.0897 152.607 30.0313 150.367 30.0313ZM168.887 32.8105H174.731C179.205 32.8105 182.62 31.5638 184.991 29.0767C187.367 26.5897 188.549 23.0118 188.549 18.33C188.549 13.9404 187.406 10.5183 185.12 8.07025C182.835 5.6222 179.633 4.40142 175.529 4.40142H168.887V32.8105ZM172.516 7.49233H175.14C181.529 7.49233 184.724 11.1417 184.724 18.4469C184.724 25.9534 181.276 29.7001 174.38 29.7001H172.516V7.49233ZM198.653 32.8105H214.627V29.5832H202.283V4.40142H198.653V32.8105ZM241.497 32.8105H245.231L235.802 4.28454H232.016L222.627 32.8105H226.322L229.159 24.0053H238.698L241.497 32.8105ZM237.666 20.804H230.185L232.984 11.7261C233.322 10.6352 233.62 9.45337 233.88 8.16765C234.179 9.49233 234.581 10.9534 235.081 12.5638L237.666 20.804ZM271.068 32.8105V4.40142H267.692V19.9469C267.692 21.2521 267.783 23.869 267.965 27.7975H267.848L256.614 4.40142H252.471V32.8105H255.815V17.4014C255.815 15.5832 255.698 12.8819 255.465 9.29752H255.62L266.893 32.8105H271.068ZM280.335 32.8105H286.185C290.653 32.8105 294.075 31.5638 296.445 29.0767C298.815 26.5897 300.004 23.0118 300.004 18.33C300.004 13.9404 298.861 10.5183 296.575 8.07025C294.289 5.6222 291.088 4.40142 286.984 4.40142H280.335V32.8105ZM283.971 7.49233H286.594C292.984 7.49233 296.172 11.1417 296.172 18.4469C296.172 25.9534 292.731 29.7001 285.835 29.7001H283.971V7.49233Z" fill="#454545"/>
<path d="M92.3347 51.2434H93.1788V46.3732C93.1788 45.5421 92.9645 44.9382 92.523 44.568C92.0879 44.1914 91.3736 44.0031 90.3996 44.0031C89.5879 44.0031 88.7632 44.2109 87.9126 44.62L88.3217 45.5096C89.1074 45.1589 89.8152 44.9771 90.4451 44.9771C91.5035 44.9771 92.0295 45.4901 92.0295 46.5096V46.9576L90.7113 47.0031C88.51 47.068 87.4126 47.8213 87.4126 49.2563C87.4126 49.9252 87.6074 50.4447 88.01 50.8148C88.4061 51.1849 88.9581 51.3732 89.6658 51.3732C90.2178 51.3732 90.6658 51.2888 91.0165 51.133C91.3671 50.9706 91.7113 50.6784 92.0425 50.2563H92.0944L92.3347 51.2434ZM92.0165 47.7628V48.4057C92.0165 49.0421 91.8282 49.5421 91.4516 49.8927C91.0684 50.2434 90.5619 50.4187 89.9321 50.4187C89.0684 50.4187 88.6334 50.0356 88.6334 49.2693C88.6334 48.7953 88.8087 48.4382 89.1658 48.2109C89.5165 47.9771 90.1204 47.8473 90.9645 47.8083L92.0165 47.7628ZM97.9451 42.0875V50.3148L95.7178 50.4447V51.2434H101.406V50.4447L99.1269 50.3148V41.1654H96.2048V41.9512L97.9451 42.0875ZM108.257 51.2434H109.101V46.3732C109.101 45.5421 108.887 44.9382 108.445 44.568C108.01 44.1914 107.296 44.0031 106.322 44.0031C105.51 44.0031 104.685 44.2109 103.835 44.62L104.244 45.5096C105.029 45.1589 105.737 44.9771 106.367 44.9771C107.426 44.9771 107.952 45.4901 107.952 46.5096V46.9576L106.633 47.0031C104.432 47.068 103.335 47.8213 103.335 49.2563C103.335 49.9252 103.529 50.4447 103.932 50.8148C104.328 51.1849 104.88 51.3732 105.588 51.3732C106.14 51.3732 106.588 51.2888 106.939 51.133C107.289 50.9706 107.633 50.6784 107.965 50.2563H108.016L108.257 51.2434ZM107.939 47.7628V48.4057C107.939 49.0421 107.75 49.5421 107.374 49.8927C106.991 50.2434 106.484 50.4187 105.854 50.4187C104.991 50.4187 104.555 50.0356 104.555 49.2693C104.555 48.7953 104.731 48.4382 105.088 48.2109C105.445 47.9771 106.042 47.8473 106.887 47.8083L107.939 47.7628ZM111.731 50.9252C112.283 51.2239 113.094 51.3732 114.166 51.3732C115.088 51.3732 115.802 51.1914 116.309 50.8213C116.815 50.4512 117.062 49.9382 117.062 49.2953C117.062 48.8278 116.913 48.4317 116.614 48.1135C116.315 47.7888 115.711 47.4641 114.796 47.133C114.01 46.8473 113.51 46.633 113.289 46.4706C113.075 46.3148 112.965 46.107 112.965 45.8408C112.965 45.2693 113.471 44.9771 114.491 44.9771C115.088 44.9771 115.776 45.133 116.562 45.4447L116.952 44.4836C116.211 44.1589 115.413 44.0031 114.555 44.0031C113.705 44.0031 113.042 44.1654 112.562 44.5031C112.081 44.8408 111.835 45.3018 111.835 45.8862C111.835 46.3148 111.971 46.6849 112.231 46.9966C112.491 47.3083 113.127 47.6524 114.133 48.0291C114.893 48.3083 115.38 48.5356 115.594 48.7174C115.809 48.8992 115.913 49.1135 115.913 49.3602C115.913 50.055 115.315 50.4057 114.133 50.4057C113.367 50.4057 112.568 50.2239 111.731 49.8537V50.9252ZM120.861 47.6589H120.835L120.939 45.7888V41.1654H119.77V51.2434H120.939V48.5096L121.776 47.9771L124.536 51.2434H125.913L122.529 47.2109L125.731 44.133H124.296L121.737 46.6784L120.861 47.6589ZM132.14 51.2434H132.984V46.3732C132.984 45.5421 132.77 44.9382 132.328 44.568C131.893 44.1914 131.185 44.0031 130.205 44.0031C129.393 44.0031 128.568 44.2109 127.718 44.62L128.127 45.5096C128.913 45.1589 129.62 44.9771 130.257 44.9771C131.309 44.9771 131.835 45.4901 131.835 46.5096V46.9576L130.516 47.0031C128.315 47.068 127.218 47.8213 127.218 49.2563C127.218 49.9252 127.413 50.4447 127.815 50.8148C128.211 51.1849 128.763 51.3732 129.471 51.3732C130.023 51.3732 130.471 51.2888 130.822 51.133C131.172 50.9706 131.516 50.6784 131.848 50.2563H131.9L132.14 51.2434ZM131.822 47.7628V48.4057C131.822 49.0421 131.633 49.5421 131.257 49.8927C130.874 50.2434 130.367 50.4187 129.737 50.4187C128.874 50.4187 128.439 50.0356 128.439 49.2693C128.439 48.7953 128.614 48.4382 128.971 48.2109C129.328 47.9771 129.926 47.8473 130.77 47.8083L131.822 47.7628ZM138.283 49.2953C137.627 49.2953 137.302 49.6524 137.302 50.3667C137.302 51.0875 137.627 51.4447 138.283 51.4447C138.939 51.4447 139.263 51.0875 139.263 50.3667C139.263 49.6524 138.939 49.2953 138.283 49.2953ZM148.062 51.2434H148.913V46.3732C148.913 45.5421 148.692 44.9382 148.25 44.568C147.815 44.1914 147.107 44.0031 146.127 44.0031C145.315 44.0031 144.491 44.2109 143.64 44.62L144.049 45.5096C144.835 45.1589 145.542 44.9771 146.179 44.9771C147.231 44.9771 147.757 45.4901 147.757 46.5096V46.9576L146.439 47.0031C144.237 47.068 143.14 47.8213 143.14 49.2563C143.14 49.9252 143.335 50.4447 143.737 50.8148C144.133 51.1849 144.685 51.3732 145.393 51.3732C145.945 51.3732 146.393 51.2888 146.744 51.133C147.094 50.9706 147.439 50.6784 147.77 50.2563H147.822L148.062 51.2434ZM147.744 47.7628V48.4057C147.744 49.0421 147.555 49.5421 147.179 49.8927C146.796 50.2434 146.289 50.4187 145.659 50.4187C144.796 50.4187 144.361 50.0356 144.361 49.2693C144.361 48.7953 144.536 48.4382 144.893 48.2109C145.25 47.9771 145.848 47.8473 146.692 47.8083L147.744 47.7628ZM153.672 42.0875V50.3148L151.445 50.4447V51.2434H157.133V50.4447L154.854 50.3148V41.1654H151.932V41.9512L153.672 42.0875ZM165.283 47.9122V47.1849C165.283 46.2174 165.01 45.4512 164.465 44.8667C163.919 44.2888 163.185 44.0031 162.27 44.0031C161.296 44.0031 160.51 44.3343 159.926 45.0096C159.341 45.6784 159.049 46.5875 159.049 47.7369C159.049 48.8732 159.367 49.7563 159.997 50.4057C160.633 51.0486 161.478 51.3732 162.536 51.3732C163.393 51.3732 164.179 51.2109 164.9 50.8862V49.8537C164.14 50.1784 163.341 50.3408 162.497 50.3408C161.049 50.3408 160.309 49.5356 160.27 47.9122H165.283ZM160.296 46.9576C160.413 45.6395 161.062 44.9771 162.25 44.9771C163.419 44.9771 164.01 45.6395 164.01 46.9576H160.296ZM169.452 47.594L166.77 51.2434H168.107L170.127 48.4187L172.133 51.2434H173.465L170.789 47.594L173.348 44.133H172.01L170.127 46.7888L168.244 44.133H166.906L169.452 47.594Z" fill="#D97B17"/>
</svg>
